<svg xmlns="http://www.w3.org/2000/svg" width="48px" height="48px" fill="#68b54a" fill-rule="evenodd" clip-rule="evenodd">
    <path d="M9.67 29.7c0,1.23 1.42,2.36 2.78,1.26l4.99 -4.15c0.25,-0.2 0.56,-0.57 0.87,-0.64l0.62 1.63c0.53,1.8 0.28,3.52 -0.4,5.16 -1.03,2.47 -3.43,4.15 -6.1,4.61 -0.27,0.04 -0.63,0.03 -0.98,0.05 -2.81,0.24 -6.14,-1.92 -7.21,-4.44 -0.64,-1.49 -0.78,-2.03 -0.78,-3.79 0,-1.2 0.39,-2.1 0.74,-2.97 0.96,-2.36 4,-4.51 6.75,-4.51 1.45,0 1.86,0.02 3.28,0.55 0.41,0.16 1.69,0.85 1.89,1.15l-4.66 3.91c-0.16,0.13 -0.3,0.24 -0.43,0.37 -0.3,0.27 -0.59,0.45 -0.86,0.72 -0.23,0.24 -0.5,0.65 -0.5,1.09zm-9.43 0.61l0 -1.13c0.09,-1.71 0.6,-3.34 1.48,-5 0.95,-1.79 3.01,-3.7 4.9,-4.47 0.31,-0.13 0.57,-0.27 0.94,-0.4 0.37,-0.12 0.68,-0.23 1.03,-0.31 2.11,-0.52 4.59,-0.39 6.59,0.38 0.31,0.11 0.69,0.34 0.94,0.4 -0.04,-0.17 -0.12,-0.34 -0.18,-0.49l-1.54 -4.12c-0.24,-0.59 -0.89,-2.22 -1.02,-2.76 -0.65,0 -1.49,0.05 -2.12,0 -1.29,-0.1 -1.91,-1.25 -1.41,-2.37 0.19,-0.42 0.63,-0.85 1.22,-0.85l6.82 0c0.77,0 1.4,0.72 1.4,1.52 0,1.62 -1.07,1.7 -2.44,1.7 0.17,0.72 0.52,1.34 0.76,2.05l1.13 3c0.14,0.34 0.24,0.67 0.37,1.03 0.2,0.54 0.68,1.45 0.72,2.02 0.22,-0.06 0.17,-0.08 0.33,-0.23 0.12,-0.12 0.14,-0.11 0.26,-0.22 1.11,-0.93 2.25,-1.8 3.33,-2.76l3.85 -3.21c0.25,-0.2 0.83,-0.81 1.12,-0.89l0 -3.95 -4.69 0c-0.49,0 -0.92,-0.11 -1.26,-0.45 -0.22,-0.22 -0.44,-0.76 -0.44,-1.19 0,-0.8 0.56,-1.59 1.4,-1.59l6.75 0c0.56,0 1.04,0.44 1.26,0.82 0.49,0.85 -0.01,6.2 0.26,6.98l2.07 5.17c0.39,-0.04 0.69,-0.15 1.08,-0.21 3.17,-0.45 5.89,0.43 8.37,2.27 0.48,0.36 0.92,0.79 1.31,1.24 2.43,2.75 3.53,6.39 2.61,10.06 -0.35,1.38 -0.8,2.52 -1.58,3.6 -0.72,1 -1.48,1.89 -2.47,2.63 -0.2,0.15 -0.4,0.29 -0.6,0.44 -0.12,0.08 -0.21,0.12 -0.34,0.21 -1.88,1.23 -4.66,1.92 -7.01,1.58 -3.28,-0.47 -5.86,-1.95 -7.79,-4.51 -1.03,-1.36 -2.09,-3.75 -2.09,-6.12l0 -0.85c0,-2.61 1.48,-5.94 3.41,-7.54 0.54,-0.45 1.41,-1.35 2.06,-1.53 -0.02,-0.27 -0.22,-0.68 -0.33,-0.94l-0.71 -1.79c-0.1,-0.25 -0.23,-0.61 -0.36,-0.86 -0.8,0.54 -1.49,1.24 -2.24,1.84l-6.08 5.06c-0.19,0.16 -0.37,0.27 -0.5,0.47 0.59,1.12 1.13,2.21 1.38,3.48 0.13,0.65 0.25,1.54 0.26,2.18 0.01,0.29 -0.06,0.37 -0.06,0.73 0.01,1.37 -0.41,2.67 -0.93,3.87 -1.01,2.35 -2.86,4.2 -5.09,5.38 -2.2,1.15 -4.76,1.46 -7.34,0.95 -2.03,-0.41 -3.45,-1.27 -4.87,-2.38 -0.46,-0.35 -0.8,-0.76 -1.2,-1.17 -1.06,-1.1 -1.88,-2.72 -2.28,-4.17 -0.25,-0.89 -0.4,-1.76 -0.44,-2.6zm35.11 -8.28c0.31,-0.15 1.3,-0.12 1.71,-0.12 0.99,0 2.25,0.4 2.92,0.73 0.9,0.44 1.48,0.84 2.17,1.53 0.55,0.55 0.38,0.35 0.85,0.98 0.77,1.02 1.48,2.71 1.48,4.12 0,1.73 -0.01,2.39 -0.83,4.04 -0.51,1.03 -0.87,1.4 -1.65,2.18 -1.15,1.15 -2.89,1.95 -4.53,2.11 -3.32,0.33 -6.41,-1.38 -7.9,-4.37 -1.45,-2.91 -0.88,-6.66 1.39,-8.9 0.26,-0.27 1.01,-0.99 1.35,-1.08 0.02,0.23 0.31,0.85 0.41,1.11l1.77 4.43c0.21,0.51 0.68,1.83 0.97,2.14 0.6,0.65 1.62,0.6 2.31,0.03 1.01,-0.84 0.24,-2.13 -0.17,-3.15l-2.26 -5.72c0,-0.01 0.02,-0.04 0.01,-0.06z"/>
</svg>
